<svg width="529.0625px" height="122px" xmlns="http://www.w3.org/2000/svg" viewBox="-14.53125 14 529.0625 122" style="background: rgba(0, 0, 0, 0);" preserveAspectRatio="xMidYMid"><defs><filter id="editing-hole" x="-100%" y="-100%" width="300%" height="300%"><feFlood flood-color="#000" result="black"></feFlood><feMorphology operator="dilate" radius="2" in="SourceGraphic" result="erode"></feMorphology><feGaussianBlur in="erode" stdDeviation="4" result="blur"></feGaussianBlur><feOffset in="blur" dx="2" dy="2" result="offset"></feOffset><feComposite operator="atop" in="offset" in2="black" result="merge"></feComposite><feComposite operator="in" in="merge" in2="SourceGraphic" result="inner-shadow"></feComposite></filter></defs><g filter="url(#editing-hole)"><g transform="translate(64.24880144000053, 104.1200008392334)"><path d="M21.12-17.98L21.12-17.98L21.12-17.98Q23.42-22.08 23.42-26.24L23.42-26.24L23.42-26.24Q23.42-28.99 21.44-28.99L21.44-28.99L21.44-28.99Q19.90-28.99 18.30-26.37L18.30-26.37L18.30-26.37Q16.64-23.74 16.13-20.35L16.13-20.35L12.80 0L-0.45 1.28L6.08-32.64L16.64-33.92L15.49-27.46L15.49-27.46Q18.62-33.92 25.66-33.92L25.66-33.92L25.66-33.92Q29.38-33.92 31.39-32L31.39-32L31.39-32Q33.41-30.08 33.41-26.14L33.41-26.14L33.41-26.14Q33.41-22.21 30.82-19.71L30.82-19.71L30.82-19.71Q28.22-17.22 23.81-17.22L23.81-17.22L23.81-17.22Q21.89-17.22 21.12-17.98ZM49.79-3.52L49.79-3.52L49.79-3.52Q47.81 1.28 41.47 1.28L41.47 1.28L41.47 1.28Q38.21 1.28 36.16-0.96L36.16-0.96L36.16-0.96Q34.43-2.94 34.43-4.93L34.43-4.93L34.43-4.93Q34.43-10.11 36.80-20.22L36.80-20.22L39.17-32.64L52.16-33.92L48.26-13.70L48.26-13.70Q47.17-8.96 47.17-7.30L47.17-7.30L47.17-7.30Q47.17-3.65 49.79-3.52ZM40.32-41.54L40.32-41.54L40.32-41.54Q40.32-44.03 42.40-45.38L42.40-45.38L42.40-45.38Q44.48-46.72 47.49-46.72L47.49-46.72L47.49-46.72Q50.50-46.72 52.32-45.38L52.32-45.38L52.32-45.38Q54.14-44.03 54.14-41.54L54.14-41.54L54.14-41.54Q54.14-39.04 52.13-37.76L52.13-37.76L52.13-37.76Q50.11-36.48 47.10-36.48L47.10-36.48L47.10-36.48Q44.10-36.48 42.21-37.76L42.21-37.76L42.21-37.76Q40.32-39.04 40.32-41.54ZM82.30 1.28L82.30 1.28L82.30 1.28Q74.56 1.28 74.56-4.74L74.56-4.74L74.56-4.74Q74.62-6.40 75.14-9.22L75.14-9.22L76.29-15.10L76.29-15.10Q78.02-23.42 78.02-25.28L78.02-25.28L78.02-25.28Q78.02-28.99 75.84-28.99L75.84-28.99L75.84-28.99Q72.19-28.99 70.27-19.46L70.27-19.46L66.50 0L53.63 1.28L60.29-32.70L70.78-33.92L69.76-27.65L69.76-27.65Q72.77-33.92 81.98-33.92L81.98-33.92L81.98-33.92Q86.46-33.92 88.35-32.03L88.35-32.03L88.35-32.03Q90.24-30.14 90.24-25.92L90.24-25.92L90.24-25.92Q90.24-21.95 88.19-12.67L88.19-12.67L88.19-12.67Q87.23-8.51 87.23-6.94L87.23-6.94L87.23-6.94Q87.23-5.38 88.10-4.48L88.10-4.48L88.10-4.48Q88.96-3.58 90.24-3.46L90.24-3.46L90.24-3.46Q89.60-1.28 87.39 0L87.39 0L87.39 0Q85.18 1.28 82.30 1.28ZM93.44-3.78L93.44-3.78L93.44-3.78Q93.44-6.21 95.33-7.55L95.33-7.55L95.33-7.55Q97.22-8.90 99.90-8.90L99.90-8.90L99.90-8.90Q102.59-8.90 104.22-7.55L104.22-7.55L104.22-7.55Q105.86-6.21 105.86-3.78L105.86-3.78L105.86-3.78Q105.86-1.34 104.03-0.03L104.03-0.03L104.03-0.03Q102.21 1.28 99.52 1.28L99.52 1.28L99.52 1.28Q96.83 1.28 95.14-0.03L95.14-0.03L95.14-0.03Q93.44-1.34 93.44-3.78ZM128.32-30.34L128.32-30.34L128.32-30.34Q131.78-33.92 139.07-33.92L139.07-33.92L139.07-33.92Q143.10-33.92 145.31-31.78L145.31-31.78L145.31-31.78Q147.52-29.63 147.52-25.70L147.52-25.70L147.52-25.70Q147.52-21.76 145.31-18.98L145.31-18.98L145.31-18.98Q143.10-16.19 139.01-15.04L139.01-15.04L139.01-15.04Q139.33-13.76 139.78-12.42L139.78-12.42L140.67-9.86L140.67-9.86Q141.89-6.59 142.85-5.44L142.85-5.44L142.85-5.44Q143.81-4.29 145.09-3.90L145.09-3.90L145.09-3.90Q144.38-1.28 141.82 0.13L141.82 0.13L141.82 0.13Q139.78 1.28 136.96 1.28L136.96 1.28L136.96 1.28Q128.70 1.28 127.62-11.46L127.62-11.46L127.62-11.46Q127.42-13.25 127.42-15.04L127.42-15.04L127.42-15.04Q130.62-15.94 132.86-18.94L132.86-18.94L132.86-18.94Q135.10-21.95 135.10-25.47L135.10-25.47L135.10-25.47Q135.10-28.99 132.61-28.99L132.61-28.99L132.61-28.99Q130.82-28.99 129.41-27.01L129.41-27.01L129.41-27.01Q128-25.02 127.36-21.63L127.36-21.63L123.14 0L110.21 1.28L119.17-44.80L132.03-46.08L130.56-38.46L130.56-38.46Q129.60-33.09 128.32-30.34ZM165.82-3.52L165.82-3.52L165.82-3.52Q163.84 1.28 157.50 1.28L157.50 1.28L157.50 1.28Q154.24 1.28 152.19-0.96L152.19-0.96L152.19-0.96Q150.46-2.94 150.46-4.93L150.46-4.93L150.46-4.93Q150.46-10.11 152.83-20.22L152.83-20.22L155.20-32.64L168.19-33.92L164.29-13.70L164.29-13.70Q163.20-8.96 163.20-7.30L163.20-7.30L163.20-7.30Q163.20-3.65 165.82-3.52ZM156.35-41.54L156.35-41.54L156.35-41.54Q156.35-44.03 158.43-45.38L158.43-45.38L158.43-45.38Q160.51-46.72 163.52-46.72L163.52-46.72L163.52-46.72Q166.53-46.72 168.35-45.38L168.35-45.38L168.35-45.38Q170.18-44.03 170.18-41.54L170.18-41.54L170.18-41.54Q170.18-39.04 168.16-37.76L168.16-37.76L168.16-37.76Q166.14-36.48 163.14-36.48L163.14-36.48L163.14-36.48Q160.13-36.48 158.24-37.76L158.24-37.76L158.24-37.76Q156.35-39.04 156.35-41.54ZM172.29-6.40L172.29-6.40L172.29-6.40Q172.29-8.13 173.18-12.48L173.18-12.48L176.58-29.76L172.80-29.76L173.06-31.68L173.06-31.68Q180.74-33.98 188.16-39.62L188.16-39.62L191.23-39.62L189.70-32.64L194.69-32.64L194.11-29.76L189.18-29.76L185.92-12.48L185.92-12.48Q185.09-8.51 185.09-7.17L185.09-7.17L185.09-7.17Q185.09-4.10 187.78-3.46L187.78-3.46L187.78-3.46Q187.14-1.28 184.83 0L184.83 0L184.83 0Q182.53 1.28 179.26 1.28L179.26 1.28L179.26 1.28Q176.00 1.28 174.14-0.77L174.14-0.77L174.14-0.77Q172.29-2.82 172.29-6.40ZM196.90-1.92L196.90-1.92L196.90-1.92Q195.39-3.58 194.72-6.21L194.72-6.21L194.72-6.21Q194.05-8.83 194.05-13.12L194.05-13.12L194.05-13.12Q194.05-17.41 195.52-21.31L195.52-21.31L195.52-21.31Q196.99-25.22 199.68-28.03L199.68-28.03L199.68-28.03Q205.18-33.92 214.27-33.92L214.27-33.92L214.27-33.92Q217.54-33.92 219.90-32.83L219.90-32.83L230.85-33.92L226.11-8.96L226.11-8.96Q225.92-8.19 225.92-6.78L225.92-6.78L225.92-6.78Q225.92-5.38 226.78-4.48L226.78-4.48L226.78-4.48Q227.65-3.58 228.93-3.46L228.93-3.46L228.93-3.46Q228.29-1.28 225.95 0L225.95 0L225.95 0Q223.62 1.28 220.99 1.28L220.99 1.28L220.99 1.28Q218.37 1.28 216.61 0.29L216.61 0.29L216.61 0.29Q214.85-0.70 214.34-2.37L214.34-2.37L214.34-2.37Q213.31-0.77 211.14 0.26L211.14 0.26L211.14 0.26Q208.96 1.28 206.05 1.28L206.05 1.28L206.05 1.28Q203.14 1.28 200.77 0.51L200.77 0.51L200.77 0.51Q198.40-0.26 196.90-1.92ZM210.40-27.90L210.40-27.90L210.40-27.90Q209.66-26.75 209.02-24.80L209.02-24.80L209.02-24.80Q208.38-22.85 207.33-17.63L207.33-17.63L207.33-17.63Q206.27-12.42 206.27-8.70L206.27-8.70L206.27-8.70Q206.27-4.99 206.85-3.90L206.85-3.90L206.85-3.90Q207.42-2.82 208.45-2.82L208.45-2.82L208.45-2.82Q210.50-2.82 212.00-4.77L212.00-4.77L212.00-4.77Q213.50-6.72 214.08-10.18L214.08-10.18L217.47-28.93L217.47-28.93Q216.13-30.08 214.56-30.08L214.56-30.08L214.56-30.08Q212.99-30.08 212.06-29.57L212.06-29.57L212.06-29.57Q211.14-29.06 210.40-27.90ZM225.41 7.62L225.41 7.62L225.41 7.62Q228.74 7.36 231.17 3.20L231.17 3.20L231.17 3.20Q233.02 0 234.24-5.89L234.24-5.89L239.42-32.64L252.29-33.92L246.85-5.89L246.85-5.89Q244.74 4.80 241.47 8.32L241.47 8.32L241.47 8.32Q239.74 10.24 237.50 10.88L237.50 10.88L237.50 10.88Q235.26 11.52 232.70 11.52L232.70 11.52L232.70 11.52Q227.33 11.52 225.41 7.62ZM240.45-41.54L240.45-41.54L240.45-41.54Q240.45-44.03 242.53-45.38L242.53-45.38L242.53-45.38Q244.61-46.72 247.62-46.72L247.62-46.72L247.62-46.72Q250.62-46.72 252.45-45.38L252.45-45.38L252.45-45.38Q254.27-44.03 254.27-41.54L254.27-41.54L254.27-41.54Q254.27-39.04 252.26-37.76L252.26-37.76L252.26-37.76Q250.24-36.48 247.23-36.48L247.23-36.48L247.23-36.48Q244.22-36.48 242.34-37.76L242.34-37.76L242.34-37.76Q240.45-39.04 240.45-41.54ZM269.95-3.52L269.95-3.52L269.95-3.52Q267.97 1.28 261.63 1.28L261.63 1.28L261.63 1.28Q258.37 1.28 256.32-0.96L256.32-0.96L256.32-0.96Q254.59-2.94 254.59-4.93L254.59-4.93L254.59-4.93Q254.59-10.11 256.96-20.22L256.96-20.22L259.33-32.64L272.32-33.92L268.42-13.70L268.42-13.70Q267.33-8.96 267.33-7.30L267.33-7.30L267.33-7.30Q267.33-3.65 269.95-3.52ZM260.48-41.54L260.48-41.54L260.48-41.54Q260.48-44.03 262.56-45.38L262.56-45.38L262.56-45.38Q264.64-46.72 267.65-46.72L267.65-46.72L267.65-46.72Q270.66-46.72 272.48-45.38L272.48-45.38L272.48-45.38Q274.30-44.03 274.30-41.54L274.30-41.54L274.30-41.54Q274.30-39.04 272.29-37.76L272.29-37.76L272.29-37.76Q270.27-36.48 267.26-36.48L267.26-36.48L267.26-36.48Q264.26-36.48 262.37-37.76L262.37-37.76L262.37-37.76Q260.48-39.04 260.48-41.54ZM321.47 1.28L321.47 1.28L321.47 1.28Q313.73 1.28 313.73-4.74L313.73-4.74L313.73-4.74Q313.73-7.36 314.85-12.45L314.85-12.45L314.85-12.45Q315.97-17.54 316.35-19.58L316.35-19.58L316.35-19.58Q317.25-24.26 317.25-25.73L317.25-25.73L317.25-25.73Q317.25-28.99 314.82-28.99L314.82-28.99L314.82-28.99Q313.22-28.99 311.68-26.78L311.68-26.78L311.68-26.78Q310.14-24.58 309.44-20.16L309.44-20.16L305.47 0L292.99 1.28L296.45-16.13L296.45-16.13Q297.02-19.01 297.54-22.27L297.54-22.27L297.54-22.27Q298.05-25.54 298.05-26.05L298.05-26.05L298.05-26.05Q298.05-28.99 295.87-28.99L295.87-28.99L295.87-28.99Q294.40-28.99 292.80-26.82L292.80-26.82L292.80-26.82Q291.20-24.64 290.30-20.16L290.30-20.16L286.40 0L273.79 1.28L280.51-32.64L290.94-33.92L289.86-27.46L289.86-27.46Q291.52-30.91 294.59-32.42L294.59-32.42L294.59-32.42Q297.66-33.92 302.46-33.92L302.46-33.92L302.46-33.92Q305.22-33.92 307.01-32.58L307.01-32.58L307.01-32.58Q308.80-31.23 309.38-29.06L309.38-29.06L309.38-29.06Q310.46-31.30 313.25-32.61L313.25-32.61L313.25-32.61Q316.03-33.92 319.46-33.92L319.46-33.92L319.46-33.92Q322.88-33.92 324.58-33.18L324.58-33.18L324.58-33.18Q326.27-32.45 327.30-31.23L327.30-31.23L327.30-31.23Q329.02-28.99 329.02-24.90L329.02-24.90L329.02-24.90Q329.02-20.86 327.30-12.48L327.30-12.48L327.30-12.48Q326.40-8.38 326.40-6.88L326.40-6.88L326.40-6.88Q326.40-5.38 327.26-4.48L327.26-4.48L327.26-4.48Q328.13-3.58 329.41-3.46L329.41-3.46L329.41-3.46Q328.77-1.28 326.56 0L326.56 0L326.56 0Q324.35 1.28 321.47 1.28ZM337.12-1.92L337.12-1.92L337.12-1.92Q335.62-3.58 334.94-6.21L334.94-6.21L334.94-6.21Q334.27-8.83 334.27-13.12L334.27-13.12L334.27-13.12Q334.27-17.41 335.74-21.31L335.74-21.31L335.74-21.31Q337.22-25.22 339.90-28.03L339.90-28.03L339.90-28.03Q345.41-33.92 354.50-33.92L354.50-33.92L354.50-33.92Q357.76-33.92 360.13-32.83L360.13-32.83L371.07-33.92L366.34-8.96L366.34-8.96Q366.14-8.19 366.14-6.78L366.14-6.78L366.14-6.78Q366.14-5.38 367.01-4.48L367.01-4.48L367.01-4.48Q367.87-3.58 369.15-3.46L369.15-3.46L369.15-3.46Q368.51-1.28 366.18 0L366.18 0L366.18 0Q363.84 1.28 361.22 1.28L361.22 1.28L361.22 1.28Q358.59 1.28 356.83 0.29L356.83 0.29L356.83 0.29Q355.07-0.70 354.56-2.37L354.56-2.37L354.56-2.37Q353.54-0.77 351.36 0.26L351.36 0.26L351.36 0.26Q349.18 1.28 346.27 1.28L346.27 1.28L346.27 1.28Q343.36 1.28 340.99 0.51L340.99 0.51L340.99 0.51Q338.62-0.26 337.12-1.92ZM350.62-27.90L350.62-27.90L350.62-27.90Q349.89-26.75 349.25-24.80L349.25-24.80L349.25-24.80Q348.61-22.85 347.55-17.63L347.55-17.63L347.55-17.63Q346.50-12.42 346.50-8.70L346.50-8.70L346.50-8.70Q346.50-4.99 347.07-3.90L347.07-3.90L347.07-3.90Q347.65-2.82 348.67-2.82L348.67-2.82L348.67-2.82Q350.72-2.82 352.22-4.77L352.22-4.77L352.22-4.77Q353.73-6.72 354.30-10.18L354.30-10.18L357.70-28.93L357.70-28.93Q356.35-30.08 354.78-30.08L354.78-30.08L354.78-30.08Q353.22-30.08 352.29-29.57L352.29-29.57L352.29-29.57Q351.36-29.06 350.62-27.90Z" fill="#ccc"></path></g></g><style>text {
  font-size: 64px;
  font-family: Arial Black;
  dominant-baseline: central;
  text-anchor: middle;
}</style></svg>